<?xml version="1.0" standalone="no"?><!DOCTYPE svg PUBLIC "-//W3C//DTD SVG 1.1//EN" "http://www.w3.org/Graphics/SVG/1.1/DTD/svg11.dtd"><svg t="1624949242079" class="icon" viewBox="0 0 1024 1024" version="1.1" xmlns="http://www.w3.org/2000/svg" p-id="7978" xmlns:xlink="http://www.w3.org/1999/xlink" width="200" height="200"><defs><style type="text/css">html, * { user-select: text !important; }
</style></defs><path d="M515.723636 52.130909A472.157091 472.157091 0 0 0 43.752727 524.288a472.157091 472.157091 0 0 0 471.970909 471.970909 472.157091 472.157091 0 0 0 472.064-471.970909 472.157091 472.157091 0 0 0-471.970909-471.970909z m0 881.291636a409.693091 409.693091 0 0 1-409.134545-409.227636A409.693091 409.693091 0 0 1 515.723636 114.967273a409.693091 409.693091 0 0 1 409.227637 409.227636 409.693091 409.693091 0 0 1-409.227637 409.227636z" fill="#666666" p-id="7979"></path><path d="M419.188364 329.914182a43.287273 43.287273 0 0 0-43.101091 43.101091v302.173091c0 23.645091 19.362909 43.101091 43.101091 43.101091a43.287273 43.287273 0 0 0 43.101091-43.101091V373.015273a43.287273 43.287273 0 0 0-43.101091-43.101091z m194.373818 0a43.287273 43.287273 0 0 0-43.101091 43.101091v302.173091c0 23.645091 19.362909 43.101091 43.101091 43.101091a43.287273 43.287273 0 0 0 43.101091-43.101091V373.015273a43.194182 43.194182 0 0 0-43.101091-43.101091z" fill="#666666" p-id="7980"></path></svg>