<?xml version="1.0" standalone="no"?><!DOCTYPE svg PUBLIC "-//W3C//DTD SVG 1.1//EN" "http://www.w3.org/Graphics/SVG/1.1/DTD/svg11.dtd"><svg t="1624949735032" class="icon" viewBox="0 0 1024 1024" version="1.1" xmlns="http://www.w3.org/2000/svg" p-id="11542" xmlns:xlink="http://www.w3.org/1999/xlink" width="200" height="200"><defs><style type="text/css">html, * { user-select: text !important; }
</style></defs><path d="M28 135.2h968c16 0 27.2-10.4 27.2-27.2 0-16-10.4-27.2-27.2-27.2h-968c-16 0-27.2 10.4-27.2 27.2 0 16.8 11.2 27.2 27.2 27.2z m968 349.6h-968c-16 0-27.2 10.4-27.2 27.2s10.4 27.2 27.2 27.2h968c16 0 27.2-10.4 27.2-27.2 0-16-11.2-27.2-27.2-27.2z m0 403.2h-968c-16 0-27.2 10.4-27.2 27.2 0 16 10.4 27.2 27.2 27.2h968c16 0 27.2-10.4 27.2-27.2 0-16-11.2-27.2-27.2-27.2z" fill="" p-id="11543"></path></svg>